<svg width="114" height="171" viewBox="0 0 114 171" fill="none" xmlns="http://www.w3.org/2000/svg">
<path d="M56.4091 4.01388L56.4069 4.01944C51.775 15.7059 43.6297 35.4323 25.2339 58.5894L56.4091 4.01388ZM56.4091 4.01388C56.516 3.74264 56.642 3.6327 56.7126 3.58515C56.7953 3.52941 56.8921 3.5 56.9946 3.5C57.0972 3.5 57.1965 3.52949 57.2829 3.58755C57.3571 3.63739 57.4854 3.75018 57.5943 4.02247M56.4091 4.01388L57.5943 4.02247M57.5943 4.02247C62.2264 15.7093 70.3719 35.4343 88.7661 58.5894L57.5943 4.02247ZM3.5 112.13C3.5 92.693 14.1314 72.5734 25.2333 58.5901H88.7667C99.8834 72.592 110.5 91.8975 110.5 112.13C110.5 145.323 87.3531 167.5 57 167.5C26.6463 167.5 3.5 145.337 3.5 112.13Z" stroke="white" stroke-width="7"/>
<path d="M57.4183 122.929C57.2054 122.385 56.4989 122.385 56.2881 122.929C56.2245 123.092 56.1565 123.265 56.0832 123.449L56.8532 123.149L56.8546 123.148L57.4183 122.929ZM57.4183 122.929L56.856 123.149L56.8546 123.149L56.082 123.452C56.0028 123.65 55.9175 123.859 55.825 124.079C56.0775 124.347 56.4441 124.521 56.8524 124.521C57.2604 124.521 57.6278 124.347 57.8811 124.079C57.7882 123.858 57.7026 123.647 57.6232 123.449C57.6228 123.448 57.6224 123.447 57.622 123.446C57.5491 123.263 57.4815 123.091 57.4183 122.929ZM56.8532 126.646C56.3936 125.714 56.0459 124.891 55.7717 124.205L53.3607 132.184C54.9717 130.12 56.0735 128.226 56.8532 126.646ZM56.8532 126.646C57.6329 128.226 58.7347 130.12 60.3458 132.184L56.8532 126.646ZM50.4795 139.282C50.4795 136.844 51.8239 134.154 53.3603 132.184L60.3461 132.184C61.8908 134.164 63.2269 136.732 63.2269 139.282C63.2269 143.478 60.4426 146.082 56.8532 146.082C53.2635 146.082 50.4795 143.48 50.4795 139.282Z" stroke="white" stroke-width="4"/>
<path d="M74.1657 104.418C73.9527 103.874 73.2463 103.874 73.0354 104.418C72.9719 104.581 72.9038 104.755 72.8305 104.938L73.6005 104.638L73.6019 104.638L74.1657 104.418ZM74.1657 104.418L73.6033 104.638L73.6019 104.639L72.8293 104.941C72.7502 105.139 72.6649 105.349 72.5723 105.569C72.8248 105.836 73.1914 106.01 73.5997 106.01C74.0077 106.01 74.3751 105.837 74.6285 105.568C74.5356 105.347 74.4499 105.137 74.3705 104.938C74.3701 104.937 74.3697 104.936 74.3693 104.935C74.2965 104.753 74.2288 104.581 74.1657 104.418ZM73.6005 108.135C73.1409 107.203 72.7932 106.38 72.5191 105.695L70.108 113.673C71.719 111.61 72.8208 109.716 73.6005 108.135ZM73.6005 108.135C74.3802 109.716 75.482 111.61 77.0931 113.673L73.6005 108.135ZM67.2268 120.772C67.2268 118.334 68.5712 115.643 70.1076 113.674L77.0934 113.674C78.6381 115.654 79.9742 118.221 79.9742 120.772C79.9742 124.968 77.1899 127.572 73.6005 127.572C70.0108 127.572 67.2268 124.97 67.2268 120.772Z" stroke="white" stroke-width="4"/>
<path d="M53.0111 91.1967C52.7981 90.6526 52.0917 90.6526 51.8808 91.1967C51.8173 91.3598 51.7493 91.5333 51.676 91.7167L52.446 91.4168L52.4474 91.4162L53.0111 91.1967ZM53.0111 91.1967L52.4488 91.4168L52.4474 91.4173L51.6748 91.7198C51.5956 91.9177 51.5103 92.1271 51.4178 92.3472C51.6702 92.6147 52.0369 92.7886 52.4452 92.7886C52.8531 92.7886 53.2206 92.6149 53.4739 92.3466C53.381 92.1255 53.2954 91.9153 53.216 91.7167C53.2156 91.7157 53.2152 91.7147 53.2148 91.7137C53.1419 91.5314 53.0743 91.3589 53.0111 91.1967ZM52.446 94.9135C51.9864 93.9817 51.6387 93.1585 51.3645 92.4732L48.9534 100.452C50.5645 98.3881 51.6663 96.4944 52.446 94.9135ZM52.446 94.9135C53.2257 96.4944 54.3275 98.3881 55.9385 100.452L52.446 94.9135ZM46.0723 107.55C46.0723 105.112 47.4166 102.422 48.9531 100.452L55.9389 100.452C57.4836 102.432 58.8197 105 58.8197 107.55C58.8197 111.746 56.0354 114.35 52.446 114.35C48.8562 114.35 46.0723 111.748 46.0723 107.55Z" stroke="white" stroke-width="4"/>
</svg>
