<svg width="144" height="210" viewBox="0 0 144 210" fill="none" xmlns="http://www.w3.org/2000/svg">
<path d="M117.031 187C104.364 199 69.8306 217 33.0306 193C-3.76945 169 2.53054 125.5 13.5306 106L71.1431 5.54742C71.5317 4.86986 72.5123 4.87944 72.8876 5.56447L135.031 119C143.031 132 139.631 183.2 88.0305 170C36.4305 156.8 33.1972 127.5 39.0305 112.5C42.2676 104.176 58.5359 96.8115 71.2293 113.413C71.6352 113.944 72.442 113.977 72.88 113.472C80.1423 105.105 97.4282 94.9114 107.031 114.5C117.031 134.9 97.6972 148.667 88.0305 153" stroke="#FF2156" stroke-width="10"/>
<path d="M88 158C90.7614 158 93 155.761 93 153C93 150.239 90.7614 148 88 148C85.2386 148 83 150.239 83 153C83 155.761 85.2386 158 88 158Z" fill="#FF2156"/>
<path d="M117 192C119.761 192 122 189.761 122 187C122 184.239 119.761 182 117 182C114.239 182 112 184.239 112 187C112 189.761 114.239 192 117 192Z" fill="#FF2156"/>
</svg>
