<svg width="125" height="188" viewBox="0 0 125 188" fill="none" xmlns="http://www.w3.org/2000/svg">
<path d="M61.5379 4.27728L61.5357 4.28285C56.462 17.0841 47.5452 38.6789 27.4043 64.0327L61.5379 4.27728ZM61.5379 4.27728C61.6795 3.91824 61.8604 3.74245 61.9961 3.651C62.144 3.55136 62.3162 3.5 62.4941 3.5C62.6721 3.5 62.8468 3.55144 62.9986 3.6534C63.138 3.74709 63.3215 3.92567 63.4655 4.28595M61.5379 4.27728L63.4655 4.28595M63.4655 4.28595C68.5394 17.0876 77.4565 38.6809 97.5957 64.0327L63.4655 4.28595ZM3.5 122.949C3.5 101.528 15.209 79.3931 27.4037 64.0335H97.5963C109.806 79.4118 121.5 100.654 121.5 122.949C121.5 159.528 95.9723 184 62.5 184C29.0272 184 3.5 159.543 3.5 122.949Z" stroke="#FF2156" stroke-width="7"/>
<path d="M62.3389 138.424C63.1974 140.217 64.441 142.412 66.3206 144.82L62.3389 138.424ZM62.3389 138.424C61.4805 140.217 60.2368 142.412 58.3572 144.82L62.3389 138.424ZM55.1572 152.722C55.1572 149.987 56.6599 146.995 58.3569 144.82H66.321C68.0262 147.006 69.5206 149.863 69.5206 152.722C69.5206 157.424 66.3866 160.371 62.3389 160.371C58.291 160.371 55.1572 157.426 55.1572 152.722Z" stroke="#FF2156" stroke-width="4"/>
<path d="M80.7022 118.128C81.5606 119.921 82.8043 122.116 84.6839 124.523L80.7022 118.128ZM80.7022 118.128C79.8438 119.921 78.6001 122.116 76.7205 124.523L80.7022 118.128ZM73.5205 132.425C73.5205 129.691 75.0232 126.699 76.7202 124.524H84.6843C86.3895 126.709 87.8839 129.566 87.8839 132.425C87.8839 137.128 84.7498 140.075 80.7022 140.075C76.6543 140.075 73.5205 137.13 73.5205 132.425Z" stroke="#FF2156" stroke-width="4"/>
<path d="M57.5064 103.63C58.3648 105.423 59.6085 107.618 61.4881 110.026L57.5064 103.63ZM57.5064 103.63C56.648 105.423 55.4043 107.618 53.5247 110.026L57.5064 103.63ZM50.3247 117.928C50.3247 115.193 51.8274 112.201 53.5244 110.026H61.4885C63.1937 112.212 64.6881 115.069 64.6881 117.928C64.6881 122.63 61.554 125.577 57.5064 125.577C53.4585 125.577 50.3247 122.632 50.3247 117.928Z" stroke="#FF2156" stroke-width="4"/>
</svg>
