<svg width="374" height="284" viewBox="0 0 374 284" fill="none" xmlns="http://www.w3.org/2000/svg">
<path d="M374 250.047H0V250.234H374V250.047Z" fill="#EBEBEB"/>
<path d="M332.03 260.826H287.232V261.013H332.03V260.826Z" fill="#EBEBEB"/>
<path d="M253.497 256.779H214.175V256.966H253.497V256.779Z" fill="#EBEBEB"/>
<path d="M283.185 260.736H270.956V260.923H283.185V260.736Z" fill="#EBEBEB"/>
<path d="M78.3754 256.689H41.9702V256.876H78.3754V256.689Z" fill="#EBEBEB"/>
<path d="M89.4982 256.689H81.6965V256.876H89.4982V256.689Z" fill="#EBEBEB"/>
<path d="M151.343 258.297H126.173V258.484H151.343V258.297Z" fill="#EBEBEB"/>
<path d="M177.276 216.686H32.8447C31.7132 216.684 30.6287 216.233 29.8294 215.433C29.03 214.632 28.5811 213.547 28.5811 212.415V9.38553C28.5909 8.26056 29.0442 7.1849 29.8425 6.3922C30.6408 5.5995 31.7196 5.15378 32.8447 5.15186H177.276C178.409 5.15186 179.495 5.60184 180.296 6.40283C181.097 7.20381 181.547 8.29017 181.547 9.42293V212.415C181.547 213.548 181.097 214.634 180.296 215.435C179.495 216.236 178.409 216.686 177.276 216.686ZM32.8447 5.30146C31.7628 5.30344 30.7259 5.7346 29.9616 6.50029C29.1973 7.26599 28.7681 8.30366 28.7681 9.38553V212.415C28.7681 213.497 29.1973 214.535 29.9616 215.3C30.7259 216.066 31.7628 216.497 32.8447 216.499H177.276C178.359 216.497 179.396 216.066 180.162 215.301C180.927 214.535 181.358 213.498 181.36 212.415V9.38553C181.358 8.30298 180.927 7.26532 180.162 6.49984C179.396 5.73435 178.359 5.30343 177.276 5.30146H32.8447Z" fill="#EBEBEB"/>
<path d="M339.076 216.686H194.637C193.505 216.684 192.42 216.234 191.619 215.433C190.819 214.633 190.368 213.547 190.366 212.415V9.38553C190.378 8.25988 190.833 7.18423 191.632 6.39173C192.432 5.59924 193.511 5.15376 194.637 5.15186H339.076C340.2 5.15575 341.276 5.60234 342.073 6.39483C342.87 7.18732 343.322 8.26185 343.332 9.38553V212.415C343.332 213.545 342.884 214.629 342.086 215.43C341.289 216.231 340.206 216.682 339.076 216.686ZM194.637 5.30146C193.554 5.30343 192.517 5.73435 191.751 6.49984C190.986 7.26532 190.555 8.30298 190.553 9.38553V212.415C190.555 213.498 190.986 214.535 191.751 215.301C192.517 216.066 193.554 216.497 194.637 216.499H339.076C340.158 216.497 341.196 216.066 341.962 215.301C342.727 214.535 343.158 213.498 343.16 212.415V9.38553C343.158 8.30298 342.727 7.26532 341.962 6.49984C341.196 5.73435 340.158 5.30343 339.076 5.30146H194.637Z" fill="#EBEBEB"/>
<path d="M338.926 175.172H35.0737V180.423H338.926V175.172Z" fill="#EBEBEB"/>
<path d="M84.2845 148.491L289.708 148.491V24.5625L84.2845 24.5625L84.2845 148.491Z" fill="#F0F0F0"/>
<path d="M284.158 142.941V30.1126L89.8348 30.1126V142.941H284.158Z" fill="#FAFAFA"/>
<path d="M252.689 142.941L217.279 30.1126H182.213L217.623 142.941H252.689Z" fill="white"/>
<path d="M206.755 142.941L171.344 30.1126H157.671L193.081 142.941H206.755Z" fill="white"/>
<path d="M90.5454 142.941V30.1126H89.8423V142.941H90.5454Z" fill="#E6E6E6"/>
<path d="M336.346 180.423H37.6467V250.047H336.346V180.423Z" fill="#F5F5F5"/>
<path d="M213.793 180.423H193.68L160.207 250.047H180.32L213.793 180.423Z" fill="#FAFAFA"/>
<path d="M305.992 180.423H285.878L252.405 250.047H272.519L305.992 180.423Z" fill="#FAFAFA"/>
<path d="M186.125 180.423H166.011L132.546 250.047H152.659L186.125 180.423Z" fill="#FAFAFA"/>
<path d="M65.3901 170.46L59.092 163.167V150.002C59.2143 149.998 59.3304 149.947 59.4156 149.859C59.5007 149.771 59.5483 149.653 59.5483 149.531C59.5483 149.404 59.4978 149.282 59.408 149.192C59.3183 149.103 59.1965 149.052 59.0695 149.052H52.36C52.233 149.052 52.1112 149.103 52.0215 149.192C51.9317 149.282 51.8813 149.404 51.8813 149.531C51.8812 149.653 51.9288 149.771 52.0139 149.859C52.0991 149.947 52.2152 149.998 52.3375 150.002V163.167L46.0618 170.46C45.7057 170.871 45.4756 171.377 45.3989 171.915C45.3222 172.454 45.4022 173.004 45.6294 173.498C45.8565 173.993 46.2212 174.411 46.6799 174.704C47.1386 174.997 47.6719 175.152 48.216 175.15H63.2359C63.7801 175.152 64.3134 174.997 64.772 174.704C65.2307 174.411 65.5954 173.993 65.8226 173.498C66.0497 173.004 66.1297 172.454 66.053 171.915C65.9764 171.377 65.7462 170.871 65.3901 170.46Z" fill="#F5F5F5"/>
<path d="M225.791 170.46L219.493 163.144V135.468C219.62 135.468 219.742 135.418 219.832 135.328C219.921 135.238 219.972 135.117 219.972 134.99C219.972 134.863 219.921 134.741 219.832 134.651C219.742 134.561 219.62 134.511 219.493 134.511H212.814C212.687 134.511 212.565 134.561 212.475 134.651C212.385 134.741 212.335 134.863 212.335 134.99C212.335 135.117 212.385 135.238 212.475 135.328C212.565 135.418 212.687 135.468 212.814 135.468V163.144L206.448 170.46C206.092 170.871 205.862 171.377 205.785 171.915C205.708 172.454 205.788 173.004 206.016 173.498C206.243 173.993 206.607 174.411 207.066 174.704C207.525 174.997 208.058 175.152 208.602 175.15H223.652C224.195 175.149 224.726 174.992 225.183 174.698C225.639 174.404 226.002 173.985 226.227 173.491C226.452 172.997 226.531 172.449 226.454 171.912C226.377 171.374 226.147 170.87 225.791 170.46Z" fill="#F5F5F5"/>
<path d="M159.332 175.135H107.211L111.325 123.007H159.332V175.135Z" fill="#E0E0E0"/>
<path d="M182.273 161.155H130.152L125.425 123.007H177.545L182.273 161.155Z" fill="#F0F0F0"/>
<path d="M182.273 161.155H130.152L146.429 175.172H198.549L182.273 161.155Z" fill="#F0F0F0"/>
<path d="M132.456 155.62L129.105 128.572C129.053 128.251 129.072 127.923 129.162 127.611C129.252 127.299 129.41 127.01 129.624 126.766C129.839 126.523 130.105 126.329 130.403 126.2C130.701 126.072 131.024 126.01 131.349 126.021H172.392C173.092 126.043 173.763 126.311 174.287 126.777C174.81 127.243 175.153 127.878 175.256 128.572L178.608 155.642C178.658 155.962 178.638 156.289 178.548 156.601C178.457 156.912 178.299 157.199 178.085 157.442C177.87 157.685 177.605 157.878 177.307 158.006C177.01 158.135 176.687 158.196 176.364 158.185H135.321C134.618 158.162 133.945 157.893 133.422 157.424C132.898 156.954 132.556 156.316 132.456 155.62Z" fill="#E0E0E0"/>
<path d="M269.908 175.135H312.971L309.575 132.08H269.908V175.135Z" fill="#E0E0E0"/>
<path d="M250.961 163.593H294.016L297.928 132.08H254.866L250.961 163.593Z" fill="#F0F0F0"/>
<path d="M250.962 163.593H294.016L280.575 175.172H237.512L250.962 163.593Z" fill="#F0F0F0"/>
<path d="M292.116 159.023L294.891 136.65C294.933 136.386 294.917 136.116 294.842 135.86C294.768 135.603 294.638 135.366 294.461 135.165C294.285 134.965 294.067 134.805 293.822 134.699C293.576 134.592 293.311 134.541 293.044 134.548H259.137C258.558 134.564 258.004 134.783 257.571 135.168C257.139 135.552 256.856 136.077 256.773 136.65L253.998 159.023C253.957 159.286 253.973 159.555 254.047 159.812C254.121 160.068 254.25 160.304 254.426 160.505C254.601 160.706 254.819 160.865 255.063 160.972C255.307 161.079 255.572 161.131 255.838 161.125H289.753C290.331 161.11 290.886 160.89 291.318 160.506C291.751 160.121 292.034 159.596 292.116 159.023Z" fill="#E0E0E0"/>
<path d="M187 283.827C267.098 283.827 332.03 280.036 332.03 275.359C332.03 270.683 267.098 266.892 187 266.892C106.902 266.892 41.9702 270.683 41.9702 275.359C41.9702 280.036 106.902 283.827 187 283.827Z" fill="#F5F5F5"/>
<path opacity="0.2" d="M65.0762 57.7512L105.214 211.091C106.448 215.754 109.477 219.738 113.64 222.174C117.802 224.61 122.76 225.3 127.429 224.091C132.092 222.858 136.077 219.828 138.513 215.666C140.949 211.503 141.638 206.545 140.43 201.876L100.292 48.5358L65.0762 57.7512Z" fill="#FF2156"/>
<path d="M126.292 219.753C122.774 220.669 119.037 220.153 115.899 218.317C112.761 216.482 110.478 213.477 109.552 209.962L79.2881 94.2461C79.2881 94.2461 85.4142 90.0648 92.5576 90.7754C97.1983 91.1073 101.853 90.3597 106.156 88.5912L136.076 203.035C136.988 206.549 136.47 210.281 134.636 213.414C132.803 216.548 129.803 218.827 126.292 219.753Z" fill="#FF2156"/>
<path opacity="0.2" d="M107.353 160.078C107.353 160.712 107.165 161.333 106.812 161.86C106.46 162.388 105.959 162.799 105.372 163.042C104.786 163.285 104.141 163.349 103.518 163.225C102.896 163.101 102.324 162.795 101.875 162.347C101.426 161.898 101.121 161.326 100.997 160.704C100.873 160.081 100.937 159.436 101.18 158.85C101.422 158.263 101.834 157.762 102.361 157.409C102.889 157.057 103.51 156.869 104.144 156.869C104.995 156.871 105.81 157.209 106.411 157.811C107.012 158.412 107.351 159.227 107.353 160.078Z" fill="black"/>
<path d="M105.58 160.078C105.582 160.362 105.499 160.64 105.342 160.877C105.185 161.115 104.961 161.3 104.699 161.41C104.437 161.52 104.148 161.549 103.869 161.495C103.589 161.44 103.333 161.304 103.131 161.103C102.93 160.903 102.792 160.647 102.736 160.368C102.68 160.089 102.708 159.8 102.817 159.537C102.925 159.274 103.109 159.05 103.345 158.891C103.582 158.733 103.86 158.649 104.144 158.649C104.524 158.649 104.888 158.799 105.157 159.067C105.426 159.335 105.578 159.698 105.58 160.078Z" fill="#FF2156"/>
<path opacity="0.2" d="M108.191 125.827C108.192 126.205 108.081 126.574 107.872 126.889C107.663 127.204 107.366 127.45 107.017 127.595C106.668 127.74 106.284 127.779 105.913 127.705C105.542 127.632 105.202 127.45 104.935 127.183C104.667 126.916 104.486 126.575 104.412 126.204C104.339 125.834 104.377 125.45 104.523 125.101C104.668 124.752 104.914 124.454 105.228 124.245C105.543 124.036 105.913 123.925 106.291 123.927C106.794 123.929 107.276 124.13 107.632 124.485C107.988 124.841 108.189 125.323 108.191 125.827Z" fill="black"/>
<path d="M107.136 125.827C107.138 125.996 107.089 126.162 106.995 126.303C106.902 126.445 106.769 126.555 106.613 126.62C106.457 126.686 106.285 126.703 106.119 126.671C105.953 126.638 105.8 126.557 105.68 126.437C105.561 126.317 105.479 126.165 105.447 125.999C105.414 125.833 105.432 125.66 105.497 125.504C105.562 125.348 105.673 125.215 105.814 125.122C105.956 125.029 106.122 124.98 106.291 124.981C106.514 124.983 106.728 125.073 106.886 125.231C107.044 125.389 107.134 125.603 107.136 125.827Z" fill="#FF2156"/>
<path opacity="0.2" d="M115.753 199.759C118.025 199.759 119.867 197.917 119.867 195.645C119.867 193.373 118.025 191.531 115.753 191.531C113.481 191.531 111.639 193.373 111.639 195.645C111.639 197.917 113.481 199.759 115.753 199.759Z" fill="black"/>
<path d="M115.753 197.485C116.769 197.485 117.593 196.661 117.593 195.645C117.593 194.629 116.769 193.805 115.753 193.805C114.737 193.805 113.913 194.629 113.913 195.645C113.913 196.661 114.737 197.485 115.753 197.485Z" fill="#FF2156"/>
<path opacity="0.2" d="M119.792 179.72C121.085 179.72 122.134 178.672 122.134 177.379C122.134 176.086 121.085 175.038 119.792 175.038C118.499 175.038 117.451 176.086 117.451 177.379C117.451 178.672 118.499 179.72 119.792 179.72Z" fill="black"/>
<path d="M120.832 177.379C120.832 177.586 120.77 177.789 120.655 177.961C120.54 178.134 120.376 178.268 120.184 178.347C119.992 178.426 119.781 178.446 119.578 178.405C119.374 178.364 119.188 178.264 119.042 178.117C118.895 177.969 118.796 177.782 118.757 177.578C118.717 177.375 118.739 177.164 118.819 176.973C118.9 176.782 119.035 176.619 119.208 176.504C119.382 176.39 119.585 176.33 119.792 176.332C120.069 176.334 120.333 176.445 120.528 176.641C120.723 176.837 120.832 177.102 120.832 177.379Z" fill="#FF2156"/>
<path opacity="0.2" d="M126.779 209.864C128.295 209.864 129.524 208.635 129.524 207.119C129.524 205.603 128.295 204.374 126.779 204.374C125.262 204.374 124.033 205.603 124.033 207.119C124.033 208.635 125.262 209.864 126.779 209.864Z" fill="black"/>
<path d="M128.005 207.112C128.005 207.354 127.933 207.592 127.799 207.793C127.664 207.995 127.472 208.152 127.248 208.245C127.024 208.338 126.777 208.362 126.539 208.315C126.301 208.268 126.083 208.151 125.911 207.979C125.74 207.808 125.623 207.589 125.576 207.351C125.528 207.113 125.553 206.867 125.645 206.642C125.738 206.418 125.895 206.227 126.097 206.092C126.299 205.957 126.536 205.885 126.779 205.885C127.104 205.885 127.416 206.014 127.646 206.244C127.876 206.474 128.005 206.786 128.005 207.112Z" fill="#FF2156"/>
<path opacity="0.2" d="M109.133 141.939C109.133 142.573 108.945 143.194 108.593 143.721C108.24 144.249 107.739 144.66 107.152 144.903C106.566 145.146 105.921 145.21 105.298 145.086C104.676 144.962 104.104 144.656 103.655 144.208C103.207 143.759 102.901 143.187 102.777 142.565C102.653 141.942 102.717 141.297 102.96 140.711C103.203 140.124 103.614 139.623 104.142 139.27C104.669 138.918 105.29 138.73 105.924 138.73C106.776 138.73 107.592 139.068 108.194 139.67C108.795 140.271 109.133 141.088 109.133 141.939Z" fill="black"/>
<path d="M108.191 141.939C108.191 142.382 108.059 142.816 107.813 143.185C107.566 143.554 107.216 143.842 106.806 144.012C106.396 144.182 105.944 144.226 105.509 144.139C105.074 144.053 104.674 143.839 104.36 143.525C104.046 143.211 103.833 142.812 103.746 142.376C103.659 141.941 103.704 141.49 103.874 141.08C104.044 140.67 104.331 140.319 104.7 140.073C105.069 139.826 105.503 139.695 105.947 139.695C106.542 139.695 107.113 139.931 107.534 140.352C107.954 140.773 108.191 141.343 108.191 141.939Z" fill="#FF2156"/>
<path opacity="0.2" d="M116.419 154.834C116.419 155.278 116.287 155.712 116.041 156.081C115.794 156.45 115.444 156.737 115.034 156.907C114.624 157.077 114.172 157.122 113.737 157.035C113.302 156.948 112.902 156.735 112.588 156.421C112.274 156.107 112.061 155.707 111.974 155.272C111.887 154.837 111.932 154.385 112.102 153.975C112.272 153.565 112.559 153.215 112.928 152.968C113.297 152.722 113.731 152.59 114.175 152.59C114.77 152.59 115.341 152.827 115.762 153.247C116.182 153.668 116.419 154.239 116.419 154.834Z" fill="black"/>
<path d="M115.753 154.834C115.759 155.153 115.67 155.467 115.497 155.736C115.324 156.004 115.075 156.215 114.781 156.341C114.488 156.467 114.164 156.503 113.85 156.445C113.536 156.386 113.247 156.235 113.019 156.012C112.791 155.788 112.635 155.502 112.57 155.189C112.506 154.876 112.536 154.551 112.657 154.256C112.777 153.96 112.983 153.707 113.249 153.529C113.514 153.351 113.826 153.256 114.145 153.256C114.566 153.256 114.971 153.421 115.272 153.716C115.573 154.011 115.745 154.413 115.753 154.834Z" fill="#FF2156"/>
<path d="M93.4799 66.8153L79.97 70.352L92.0936 116.663L105.604 113.127L93.4799 66.8153Z" fill="white"/>
<path d="M98.4062 23.112L97.6826 23.3014L99.1185 28.7864L99.8421 28.597L98.4062 23.112Z" fill="#FF2156"/>
<path d="M96.7614 19.7677L93.7245 8.18123C93.5261 7.42143 93.0816 6.74876 92.4605 6.26833C91.8393 5.78791 91.0765 5.52681 90.2912 5.52583C89.9855 5.52462 89.681 5.56488 89.3861 5.64551L82.5569 7.43323L82.3699 6.68523L89.1991 4.89751C89.5552 4.80202 89.9225 4.75423 90.2912 4.75539C91.2425 4.75608 92.1668 5.07216 92.9193 5.65415C93.6718 6.23614 94.2102 7.05121 94.4501 7.97179L97.4421 19.5583L96.7614 19.7677Z" fill="#FF2156"/>
<path d="M54.0427 16.8257L89.8617 7.44877C90.2912 7.34242 90.7453 7.40952 91.1258 7.63553C91.5062 7.86154 91.7823 8.22828 91.8943 8.65636L101.697 46.1035L62.6222 56.3328L52.8191 18.8857C52.7626 18.6701 52.7495 18.4453 52.7806 18.2246C52.8117 18.0039 52.8863 17.7915 53.0002 17.5998C53.114 17.4082 53.2648 17.2411 53.4438 17.1082C53.6227 16.9753 53.8263 16.8792 54.0427 16.8257Z" fill="#FF2156"/>
<path opacity="0.2" d="M72.9218 11.8759L70.9897 12.3817L81.2191 51.4569L83.1511 50.9511L72.9218 11.8759Z" fill="black"/>
<path opacity="0.2" d="M80.2317 10.3819L78.2944 10.8812L88.3924 50.0614L90.3297 49.5621L80.2317 10.3819Z" fill="black"/>
<path opacity="0.2" d="M87.3866 8.0963L85.4546 8.60208L95.6839 47.6773L97.616 47.1715L87.3866 8.0963Z" fill="black"/>
<path opacity="0.2" d="M65.6784 13.7751L63.7463 14.2809L73.9757 53.3561L75.9077 52.8503L65.6784 13.7751Z" fill="black"/>
<path opacity="0.2" d="M58.4516 15.6721L56.5195 16.1779L66.7489 55.2531L68.6809 54.7473L58.4516 15.6721Z" fill="black"/>
<path d="M101.033 43.4417L61.9502 53.673C60.6194 54.0213 59.823 55.3826 60.1713 56.7134L61.5296 61.9017C61.878 63.2325 63.2392 64.029 64.57 63.6806L103.652 53.4493C104.983 53.101 105.78 51.7397 105.431 50.4089L104.073 45.2206C103.725 43.8898 102.363 43.0934 101.033 43.4417Z" fill="#FF2156"/>
<path d="M329.794 101.165L329.385 106.22L330.131 106.281L330.539 101.226L329.794 101.165Z" fill="#FF2156"/>
<path d="M331.484 80.6484L330.271 95.6567L331.017 95.7169L332.23 80.7086L331.484 80.6484Z" fill="#FF2156"/>
<path d="M209.552 19.0048L196.32 182.66L294.667 190.603L322.627 166.832L333.765 29.043L209.552 19.0048Z" fill="white"/>
<path d="M294.667 191.292H294.607L196.268 183.34C196.177 183.334 196.088 183.309 196.007 183.268C195.926 183.226 195.854 183.169 195.795 183.099C195.737 183.029 195.693 182.949 195.666 182.862C195.639 182.775 195.63 182.683 195.639 182.592L208.864 18.9524C208.871 18.8619 208.897 18.7738 208.939 18.6932C208.98 18.6125 209.038 18.5409 209.107 18.4825C209.177 18.4241 209.257 18.38 209.344 18.3529C209.43 18.3257 209.521 18.3159 209.612 18.3241L333.817 28.3398C333.908 28.3464 333.997 28.3711 334.078 28.4125C334.159 28.4539 334.231 28.5112 334.29 28.5809C334.348 28.6507 334.392 28.7315 334.419 28.8186C334.446 28.9056 334.455 28.9972 334.446 29.0878L323.308 166.869C323.302 166.959 323.277 167.046 323.236 167.126C323.195 167.206 323.138 167.276 323.069 167.333L295.108 191.112C294.988 191.224 294.831 191.288 294.667 191.292ZM197.06 182.031L294.435 189.908L321.969 166.495L333.024 29.6713L210.188 19.7453L197.06 182.031Z" fill="#FF2156"/>
<path opacity="0.2" d="M291.885 166.286L294.667 190.603L322.627 166.832L291.885 166.286Z" fill="#FF2156"/>
<path d="M296.754 164.738L294.667 190.603L322.627 166.832L296.754 164.738Z" fill="white"/>
<path d="M294.667 191.292C294.558 191.293 294.45 191.267 294.353 191.217C294.232 191.155 294.132 191.059 294.065 190.941C293.998 190.822 293.968 190.687 293.979 190.551L296.073 164.685C296.079 164.595 296.104 164.506 296.145 164.425C296.186 164.344 296.243 164.272 296.313 164.214C296.381 164.155 296.461 164.111 296.547 164.084C296.633 164.057 296.724 164.048 296.814 164.057L322.68 166.144C322.815 166.155 322.943 166.205 323.05 166.289C323.156 166.373 323.236 166.486 323.278 166.615C323.321 166.746 323.325 166.888 323.287 167.021C323.25 167.154 323.174 167.273 323.069 167.363L295.108 191.142C294.985 191.245 294.828 191.298 294.667 191.292ZM297.382 165.478L295.46 189.01L320.892 167.378L297.382 165.478Z" fill="#FF2156"/>
<path opacity="0.2" d="M235.104 142.784H234.984L218.049 141.415C217.868 141.401 217.691 141.351 217.529 141.268C217.368 141.185 217.224 141.07 217.107 140.931C216.99 140.791 216.902 140.63 216.848 140.456C216.794 140.283 216.775 140.1 216.793 139.919L218.162 122.984C218.177 122.803 218.227 122.627 218.311 122.466C218.394 122.304 218.509 122.161 218.648 122.044C218.787 121.928 218.948 121.839 219.121 121.785C219.294 121.731 219.477 121.711 219.658 121.728L236.585 123.096C236.766 123.111 236.942 123.162 237.103 123.246C237.265 123.329 237.408 123.444 237.525 123.583C237.641 123.722 237.73 123.883 237.784 124.056C237.838 124.229 237.858 124.412 237.841 124.592L236.473 141.52C236.459 141.699 236.409 141.875 236.327 142.035C236.245 142.196 236.132 142.338 235.994 142.455C235.745 142.665 235.43 142.782 235.104 142.784ZM219.635 138.782L233.847 139.934L234.992 125.722L220.78 124.57L219.635 138.782Z" fill="#263238"/>
<path opacity="0.2" d="M238.827 80.6857L238.707 80.6837L221.797 79.0336C221.616 79.0165 221.44 78.9635 221.28 78.8776C221.12 78.7918 220.978 78.6749 220.863 78.5336C220.749 78.3924 220.663 78.2298 220.612 78.0552C220.561 77.8806 220.545 77.6976 220.566 77.5169L222.216 60.6073C222.234 60.4265 222.288 60.2512 222.374 60.0913C222.46 59.9314 222.577 59.7901 222.718 59.6757C222.859 59.5612 223.021 59.4757 223.195 59.4242C223.369 59.3727 223.552 59.3562 223.732 59.3757L240.635 61.0257C240.815 61.0437 240.991 61.0974 241.151 61.1835C241.31 61.2697 241.452 61.3866 241.566 61.5276C241.681 61.6686 241.766 61.8308 241.818 62.005C241.869 62.1792 241.886 62.3618 241.866 62.5424L240.216 79.4445C240.199 79.624 240.147 79.7984 240.062 79.9576C239.977 80.1167 239.862 80.2574 239.722 80.3714C239.47 80.5779 239.153 80.6891 238.827 80.6857ZM223.427 76.4273L237.617 77.8153L238.998 63.6243L224.807 62.2363L223.427 76.4273Z" fill="#263238"/>
<path d="M299.761 136.052H299.641L244.334 131.564C243.972 131.534 243.637 131.362 243.402 131.085C243.167 130.808 243.052 130.449 243.081 130.087C243.111 129.724 243.283 129.389 243.56 129.154C243.837 128.919 244.197 128.804 244.559 128.834L299.858 133.322C300.038 133.328 300.215 133.37 300.378 133.444C300.542 133.519 300.689 133.625 300.812 133.757C300.934 133.889 301.03 134.043 301.093 134.212C301.156 134.38 301.185 134.559 301.178 134.739C301.172 134.919 301.13 135.096 301.056 135.259C300.981 135.423 300.875 135.57 300.743 135.693C300.611 135.815 300.457 135.911 300.288 135.974C300.12 136.037 299.941 136.066 299.761 136.059V136.052Z" fill="#E0E0E0"/>
<path d="M303.587 75.0294L303.467 75.0274L248.242 69.6207C247.881 69.5849 247.548 69.407 247.318 69.1261C247.088 68.8452 246.978 68.4843 247.014 68.1228C247.05 67.7613 247.228 67.4288 247.509 67.1984C247.789 66.9681 248.15 66.8588 248.512 66.8946L303.729 72.3012C303.909 72.3106 304.085 72.3553 304.247 72.4327C304.41 72.5101 304.555 72.6187 304.676 72.7523C304.796 72.886 304.889 73.042 304.949 73.2115C305.009 73.3811 305.035 73.5608 305.026 73.7404C305.016 73.9201 304.972 74.0961 304.894 74.2585C304.817 74.4208 304.708 74.5664 304.575 74.6867C304.441 74.8071 304.285 74.9 304.115 74.9601C303.946 75.0202 303.766 75.0463 303.587 75.0369L303.587 75.0294Z" fill="#E0E0E0"/>
<path d="M261.628 139.867H261.508L243.78 138.438C243.592 138.435 243.407 138.393 243.235 138.315C243.064 138.237 242.91 138.125 242.784 137.986C242.657 137.846 242.561 137.682 242.5 137.504C242.44 137.326 242.417 137.137 242.432 136.949C242.447 136.762 242.501 136.579 242.59 136.413C242.679 136.247 242.8 136.101 242.948 135.984C243.095 135.867 243.265 135.781 243.447 135.733C243.629 135.684 243.819 135.673 244.005 135.7L261.732 137.136C262.095 137.15 262.438 137.308 262.685 137.574C262.932 137.841 263.063 138.195 263.049 138.558C263.035 138.921 262.878 139.263 262.611 139.51C262.344 139.757 261.991 139.888 261.628 139.874V139.867Z" fill="#E0E0E0"/>
<path d="M265.395 78.2098L265.276 78.2078L247.574 76.4847C247.386 76.4783 247.201 76.4335 247.031 76.3529C246.861 76.2723 246.709 76.1576 246.585 76.016C246.461 75.8744 246.368 75.7089 246.31 75.5296C246.253 75.3504 246.232 75.1612 246.251 74.9739C246.269 74.7866 246.326 74.605 246.418 74.4405C246.509 74.2759 246.633 74.1319 246.783 74.0173C246.932 73.9027 247.103 73.8199 247.286 73.7741C247.468 73.7284 247.658 73.7205 247.844 73.7511L265.546 75.4817C265.908 75.5017 266.248 75.6649 266.491 75.9355C266.733 76.2061 266.858 76.5619 266.838 76.9246C266.818 77.2874 266.655 77.6274 266.384 77.8698C266.114 78.1122 265.758 78.2372 265.395 78.2173L265.395 78.2098Z" fill="#E0E0E0"/>
<path d="M287.726 141.976H287.606L272.272 140.734C271.91 140.704 271.574 140.532 271.34 140.255C271.105 139.978 270.989 139.619 271.019 139.257C271.049 138.895 271.221 138.56 271.498 138.325C271.775 138.09 272.134 137.974 272.496 138.004L287.793 139.238C288.156 139.251 288.499 139.408 288.747 139.674C288.994 139.939 289.126 140.293 289.113 140.656C289.1 141.019 288.944 141.362 288.678 141.609C288.412 141.857 288.059 141.989 287.696 141.976H287.726Z" fill="#E0E0E0"/>
<path d="M291.455 80.7527L291.335 80.7507L276.024 79.2543C275.662 79.2185 275.33 79.0406 275.099 78.7597C274.869 78.4788 274.76 78.1179 274.795 77.7564C274.831 77.3949 275.009 77.0624 275.29 76.8321C275.571 76.6017 275.932 76.4924 276.293 76.5282L291.567 78.0165C291.93 78.0354 292.271 78.1977 292.514 78.4676C292.757 78.7375 292.883 79.0929 292.864 79.4557C292.845 79.8185 292.683 80.1589 292.413 80.402C292.143 80.6452 291.787 80.7711 291.425 80.7522L291.455 80.7527Z" fill="#E0E0E0"/>
<path opacity="0.2" d="M232.673 172.883H232.553L215.618 171.514C215.437 171.5 215.26 171.45 215.099 171.367C214.937 171.284 214.793 171.169 214.676 171.03C214.559 170.891 214.471 170.73 214.417 170.556C214.363 170.382 214.344 170.2 214.362 170.018L215.731 153.091C215.746 152.91 215.796 152.734 215.88 152.573C215.963 152.411 216.078 152.268 216.217 152.151C216.356 152.035 216.517 151.946 216.69 151.892C216.863 151.838 217.046 151.818 217.227 151.835L234.124 153.256C234.305 153.27 234.482 153.32 234.644 153.403C234.806 153.486 234.949 153.601 235.066 153.74C235.183 153.879 235.271 154.041 235.325 154.214C235.379 154.388 235.398 154.571 235.381 154.752L234.012 171.687C233.98 172.049 233.809 172.384 233.533 172.622C233.285 172.805 232.981 172.897 232.673 172.883ZM217.204 168.889L231.416 170.041L232.561 155.829L218.349 154.677L217.204 168.889Z" fill="#263238"/>
<path opacity="0.2" d="M235.895 110.741L235.776 110.739L218.866 109.089C218.685 109.071 218.509 109.018 218.349 108.933C218.188 108.847 218.047 108.73 217.932 108.589C217.817 108.447 217.732 108.285 217.681 108.11C217.63 107.936 217.614 107.753 217.635 107.572L219.285 90.6697C219.303 90.489 219.356 90.3136 219.442 90.1537C219.529 89.9938 219.646 89.8526 219.787 89.7381C219.928 89.6236 220.09 89.5382 220.264 89.4867C220.438 89.4352 220.621 89.4187 220.801 89.4381L237.673 91.14C237.854 91.1571 238.03 91.2101 238.19 91.2959C238.35 91.3817 238.492 91.4987 238.607 91.6399C238.721 91.7811 238.807 91.9437 238.858 92.1183C238.909 92.2929 238.925 92.4759 238.904 92.6567L237.254 109.566C237.217 109.928 237.039 110.261 236.76 110.493C236.509 110.672 236.203 110.76 235.895 110.741ZM220.495 106.49L234.686 107.878L236.067 93.6868L221.876 92.2987L220.495 106.49Z" fill="#263238"/>
<path d="M287.404 165.351H287.284L241.903 161.678C241.541 161.649 241.206 161.476 240.971 161.199C240.736 160.922 240.62 160.563 240.65 160.201C240.68 159.839 240.852 159.504 241.129 159.269C241.406 159.034 241.765 158.918 242.127 158.948L287.509 162.613C287.872 162.627 288.214 162.785 288.461 163.051C288.708 163.318 288.839 163.671 288.825 164.035C288.811 164.398 288.654 164.74 288.387 164.987C288.121 165.234 287.767 165.365 287.404 165.351Z" fill="#E0E0E0"/>
<path d="M290.744 104.119L290.625 104.117L245.311 99.6906C244.949 99.6549 244.617 99.4769 244.386 99.196C244.156 98.9151 244.047 98.5542 244.083 98.1927C244.118 97.8312 244.296 97.4987 244.577 97.2684C244.858 97.038 245.219 96.9287 245.581 96.9645L290.894 101.384C291.257 101.404 291.597 101.567 291.84 101.837C292.082 102.108 292.207 102.464 292.187 102.826C292.167 103.189 292.004 103.529 291.733 103.772C291.463 104.014 291.107 104.139 290.744 104.119Z" fill="#E0E0E0"/>
<path d="M269.22 170.759H269.1L241.35 168.515C241.161 168.512 240.976 168.47 240.804 168.392C240.633 168.315 240.479 168.202 240.353 168.063C240.226 167.923 240.13 167.759 240.07 167.581C240.009 167.403 239.986 167.214 240.001 167.026C240.017 166.839 240.07 166.656 240.159 166.49C240.248 166.324 240.37 166.178 240.517 166.061C240.664 165.944 240.834 165.858 241.016 165.81C241.198 165.761 241.388 165.75 241.574 165.777L269.317 168.021C269.68 168.034 270.023 168.191 270.271 168.457C270.519 168.722 270.65 169.076 270.637 169.439C270.625 169.802 270.468 170.145 270.202 170.392C269.936 170.64 269.583 170.772 269.22 170.759Z" fill="#E0E0E0"/>
<path d="M272.473 109.224L272.353 109.222L244.644 106.517C244.456 106.511 244.271 106.466 244.101 106.385C243.93 106.305 243.779 106.19 243.655 106.049C243.531 105.907 243.437 105.741 243.379 105.562C243.322 105.383 243.302 105.194 243.32 105.006C243.339 104.819 243.395 104.638 243.487 104.473C243.578 104.308 243.703 104.164 243.852 104.05C244.001 103.935 244.173 103.852 244.355 103.807C244.538 103.761 244.728 103.753 244.914 103.784L272.616 106.488C272.979 106.507 273.319 106.67 273.562 106.94C273.805 107.209 273.931 107.565 273.912 107.928C273.893 108.29 273.731 108.631 273.461 108.874C273.191 109.117 272.836 109.243 272.473 109.224Z" fill="#E0E0E0"/>
<path opacity="0.3" d="M134.233 130.898C140.045 113.776 128.333 94.3203 108.074 87.4431C87.8144 80.566 66.6791 88.8712 60.8669 105.993C55.0547 123.116 66.7666 142.571 87.0261 149.448C107.286 156.325 128.421 148.02 134.233 130.898Z" fill="#FF2156"/>
<path opacity="0.3" d="M119.376 94.9943L111.248 86.5804L64.8315 131.42L72.9596 139.834L119.376 94.9943Z" fill="white"/>
<path opacity="0.3" d="M129.974 103.631L123.628 97.0623L76.1359 142.941L82.4815 149.51L129.974 103.631Z" fill="white"/>
<path d="M101.466 154.512C96.2667 154.495 91.1049 153.628 86.1847 151.947C75.8024 148.416 67.1929 141.662 61.9345 132.925C56.5863 124.046 55.3296 114.225 58.3964 105.167C61.4632 96.1087 68.457 89.0849 78.1062 85.2926C87.5984 81.5526 98.5416 81.4479 108.924 84.9784C119.306 88.509 127.923 95.2559 133.181 103.993C138.522 112.871 139.779 122.73 136.72 131.758C133.66 140.787 126.651 147.84 117.01 151.625C112.055 153.553 106.783 154.533 101.466 154.512ZM93.6422 87.6488C88.9897 87.6302 84.3749 88.4826 80.0361 90.162C71.8081 93.4158 65.9138 99.3101 63.3557 106.88C60.7975 114.45 61.8597 122.722 66.415 130.255C71.0376 137.937 78.6598 143.891 87.8677 147.018C97.0755 150.144 106.755 150.062 115.095 146.786C123.278 143.569 129.202 137.645 131.76 130.105C134.318 122.565 133.256 114.263 128.693 106.723C124.071 99.0408 116.456 93.0942 107.241 89.9676C102.865 88.4569 98.2713 87.6736 93.6422 87.6488Z" fill="#263238"/>
<path d="M137.041 127.383C142.143 127.971 147.211 128.823 152.225 129.933C157.207 130.995 162.144 132.222 167.028 133.568C171.913 134.915 176.752 136.388 181.584 137.959C183.971 138.804 186.461 139.365 188.676 140.704C189.834 141.389 190.902 142.216 191.855 143.165C192.377 143.681 192.86 144.237 193.298 144.826C193.797 145.481 194.228 146.185 194.585 146.928C195.277 148.356 195.379 149.999 194.869 151.502C194.36 153.006 193.28 154.248 191.862 154.961C191.123 155.332 190.349 155.627 189.551 155.844C188.847 156.042 188.129 156.187 187.404 156.278C186.068 156.45 184.716 156.45 183.38 156.278C180.807 155.994 178.495 154.924 176.087 154.146C171.307 152.463 166.565 150.683 161.875 148.76C157.185 146.838 152.517 144.826 147.91 142.634C143.259 140.46 138.722 138.048 134.318 135.409C133.476 134.892 132.835 134.105 132.499 133.177C132.164 132.248 132.154 131.233 132.471 130.297C132.789 129.362 133.415 128.563 134.247 128.031C135.078 127.498 136.066 127.264 137.049 127.368L137.041 127.383Z" fill="#263238"/>
<path opacity="0.1" d="M182.512 74.3942C183.051 77.4535 181.801 79.7349 179.722 79.4881C177.643 79.2413 175.526 76.5709 174.995 73.5041C174.464 70.4373 175.743 68.1634 177.785 68.4102C179.827 68.6571 181.959 71.3349 182.512 74.3942Z" fill="#FF2156"/>
<path d="M193.732 272.188C199.918 271.709 203.06 267.745 202.574 263.287C202.304 260.826 210.181 260.025 210.181 260.025C209.021 267.797 210.719 269.046 211.011 271.043C211.303 273.041 211.138 275.21 209.515 275.247C207.555 275.3 206.673 274.926 204.234 275.023C201.384 275.127 199.462 275.24 194.405 275.247C192.393 275.262 191.002 272.412 193.732 272.188Z" fill="#263238"/>
<path d="M249.249 267.7C252.906 261.439 249.899 257.325 247.259 253.922C245.696 251.91 253.198 249.359 253.198 249.359C255.068 254.064 256.938 254.004 258.808 255.044C260.678 256.083 261.748 257.811 260.723 259.075C259.489 260.571 258.397 260.459 256.946 262.389C255.248 264.633 253.437 267.558 251.059 269.981C249.645 271.44 247.872 270.034 249.249 267.7Z" fill="#263238"/>
<path d="M177.381 141.086C177.381 141.086 178.421 172.502 186.095 198.682C189.439 221.316 202.491 264.087 202.491 264.087C205.199 264.733 208.024 264.708 210.719 264.012C210.719 264.012 214.901 230.995 206.119 195.196C211.826 157.011 207.944 137.518 207.944 137.518L177.381 141.086Z" fill="#FF2156"/>
<path d="M189.446 139.642C189.446 139.642 202.558 182.854 212.634 202.841C223.226 223.83 246.047 253.705 247.102 255.029C250.004 253.645 252.54 252.074 254.058 249.957C254.058 249.957 245.337 216.821 232.449 194.246C222.313 144.504 215.559 136.531 215.559 136.531L189.446 139.642Z" fill="#FF2156"/>
<path d="M197.098 77.1319C196.545 81.5675 196.35 88.7109 198.482 92.249C198.482 92.249 192.827 93.2139 185.474 100.671C180.986 95.5028 184.607 93.9395 184.607 93.9395C187.89 92.7427 187.935 88.5763 187.546 85.3674L197.098 77.1319Z" fill="#FFC3BD"/>
<path d="M173.349 106.371C172.504 101.203 175.556 96.9913 181.966 94.7772C187.875 92.7426 196.358 91.2541 202.214 92.0919C208.071 92.9296 210.218 95.8319 209.829 100.245C208.153 119.394 215.476 130.674 215.574 136.531C201.795 140.046 180.769 143.001 177.381 141.086C174.905 138.475 175.384 122.191 176.154 119.708C170.043 116.499 173.82 109.251 173.349 106.371Z" fill="#FF2156"/>
<path d="M179.169 74.267C179.258 74.843 179.026 75.3666 178.645 75.4264C178.263 75.4863 177.897 75.0674 177.785 74.484C177.673 73.9005 177.927 73.3769 178.308 73.3171C178.69 73.2573 179.071 73.6836 179.169 74.267Z" fill="#263238"/>
<path d="M178.48 73.3246L176.984 73.1451C176.984 73.1451 177.912 74.1249 178.48 73.3246Z" fill="#263238"/>
<path d="M179.146 75.4639C178.833 76.8744 178.33 78.2358 177.65 79.5105C177.979 79.6762 178.341 79.7675 178.709 79.7778C179.078 79.7881 179.444 79.7173 179.782 79.5704L179.146 75.4639Z" fill="#ED847E"/>
<path d="M177.314 71.1778C177.255 71.1425 177.209 71.0907 177.18 71.029C177.152 70.9673 177.142 70.8984 177.152 70.8312C177.163 70.7639 177.193 70.7013 177.239 70.6511C177.285 70.601 177.345 70.5656 177.411 70.5495C177.94 70.3996 178.498 70.3791 179.037 70.4898C179.576 70.6004 180.08 70.839 180.508 71.1853C180.572 71.2498 180.608 71.3372 180.608 71.4284C180.608 71.5195 180.572 71.607 180.508 71.6715C180.476 71.7043 180.438 71.7304 180.397 71.7482C180.355 71.7661 180.31 71.7753 180.264 71.7753C180.219 71.7753 180.174 71.7661 180.132 71.7482C180.09 71.7304 180.053 71.7043 180.021 71.6715C179.679 71.4043 179.278 71.2217 178.852 71.1385C178.426 71.0553 177.986 71.0739 177.568 71.1928C177.484 71.2213 177.393 71.2159 177.314 71.1778Z" fill="#263238"/>
<path d="M198.1 70.2727C198.803 77.4909 199.252 80.5353 196.29 84.769C191.84 91.1344 182.983 90.379 180.178 83.5048C177.658 77.3189 176.932 66.5552 183.342 62.6207C189.753 58.6862 197.397 63.0545 198.1 70.2727Z" fill="#FFC3BD"/>
<path d="M183.26 74.7981C180.635 75.1796 179.52 71.1703 180.418 69.4051C177.321 69.3078 176.783 66.5103 177.785 64.4533C178.787 62.3963 181.293 57.8335 190.314 59.2173C199.335 60.6011 202.282 68.4476 201.496 71.7463C200.711 75.045 202.327 84.3202 193.897 85.8461C185.467 87.372 180.336 79.0169 183.26 74.7981Z" fill="#263238"/>
<path d="M213.591 92.6679C208.984 88.1799 191.548 90.4238 178.862 94.463C166.176 98.5022 169.34 111.233 170.439 120.104C171.539 128.976 178.174 191.583 185.788 214.352C204.279 214.584 232.516 208.368 240.355 204.322C237.281 196.169 220.787 132.746 218.079 116.058C216.763 107.92 218.453 97.3802 213.591 92.6679Z" fill="#FF2156"/>
<path opacity="0.6" d="M213.591 92.6679C208.984 88.1799 191.548 90.4238 178.862 94.463C166.176 98.5022 169.34 111.233 170.439 120.104C171.539 128.976 178.174 191.583 185.788 214.352C204.279 214.584 232.516 208.368 240.355 204.322C237.281 196.169 220.787 132.746 218.079 116.058C216.763 107.92 218.453 97.3802 213.591 92.6679Z" fill="white"/>
<path opacity="0.5" d="M171.546 129.522C174.09 126.231 176.281 123.044 176.969 121.077C179.423 114.038 176.109 133.254 173.192 143.248C172.541 138.027 171.988 133.344 171.546 129.522Z" fill="#FF2156"/>
<path d="M150.49 133.696L153.153 136.388C154.582 140.323 148.987 142.492 148.987 142.492L146.474 144.616C146.098 144.969 145.602 145.166 145.086 145.166C144.57 145.166 144.074 144.969 143.698 144.616L141.828 142.746C141.413 142.299 141.181 141.711 141.181 141.101C141.181 140.49 141.413 139.902 141.828 139.455L143.773 137.301C144.319 136.684 144.99 136.189 145.741 135.85L150.49 133.696Z" fill="#FF2156"/>
<path d="M151.567 133.411C148.575 132.102 145.838 134.414 143.339 135.603C142.913 135.805 142.771 137.032 143.519 137.166C144.001 137.282 144.501 137.3 144.99 137.221C145.48 137.141 145.948 136.965 146.369 136.703C146.997 137.51 149.608 138.879 152.211 136.516C152.413 135.437 152.182 134.321 151.567 133.411Z" fill="#FF2156"/>
<path d="M186.955 106.177L186.589 107.912L186.192 109.55C185.923 110.635 185.639 111.712 185.355 112.782C184.756 114.928 184.105 117.068 183.38 119.192C182.654 121.316 181.884 123.433 180.994 125.55C180.567 126.612 180.089 127.674 179.61 128.729L178.862 130.315L178.406 131.235C178.204 131.646 177.979 132.035 177.747 132.424C175.854 135.549 173.036 138.008 169.684 139.463L169.37 139.597L169.138 139.687L168.689 139.852L167.784 140.173L166.019 140.727L164.298 141.206L162.6 141.617C160.356 142.126 158.112 142.515 155.913 142.821C154.806 142.971 153.707 143.098 152.6 143.218C151.493 143.337 150.416 143.427 149.219 143.494L147.356 132.581L150.199 131.684C151.164 131.377 152.121 131.048 153.071 130.719C154.971 130.075 156.811 129.402 158.629 128.684L159.945 128.138L161.217 127.584L162.413 127.001L162.959 126.702L163.244 126.56L163.371 126.492L163.416 126.455C163.895 126.066 164.251 125.547 164.441 124.959C164.441 124.884 164.485 124.817 164.5 124.742V124.69L164.553 124.54L164.665 124.211L165.129 122.88C165.42 121.967 165.727 121.077 166.004 120.142C166.565 118.294 167.081 116.402 167.575 114.472C168.068 112.542 168.532 110.62 168.966 108.668C169.19 107.695 169.407 106.723 169.609 105.75L170.185 102.93L186.955 106.177Z" fill="#FF2156"/>
<g opacity="0.6">
<path opacity="0.6" d="M186.955 106.177L186.589 107.912L186.192 109.55C185.923 110.635 185.639 111.712 185.355 112.782C184.756 114.928 184.105 117.068 183.38 119.192C182.654 121.316 181.884 123.433 180.994 125.55C180.567 126.612 180.089 127.674 179.61 128.729L178.862 130.315L178.406 131.235C178.204 131.646 177.979 132.035 177.747 132.424C175.854 135.549 173.036 138.008 169.684 139.463L169.37 139.597L169.138 139.687L168.689 139.852L167.784 140.173L166.019 140.727L164.298 141.206L162.6 141.617C160.356 142.126 158.112 142.515 155.913 142.821C154.806 142.971 153.707 143.098 152.6 143.218C151.493 143.337 150.416 143.427 149.219 143.494L147.356 132.581L150.199 131.684C151.164 131.377 152.121 131.048 153.071 130.719C154.971 130.075 156.811 129.402 158.629 128.684L159.945 128.138L161.217 127.584L162.413 127.001L162.959 126.702L163.244 126.56L163.371 126.492L163.416 126.455C163.895 126.066 164.251 125.547 164.441 124.959C164.441 124.884 164.485 124.817 164.5 124.742V124.69L164.553 124.54L164.665 124.211L165.129 122.88C165.42 121.967 165.727 121.077 166.004 120.142C166.565 118.294 167.081 116.402 167.575 114.472C168.068 112.542 168.532 110.62 168.966 108.668C169.19 107.695 169.407 106.723 169.609 105.75L170.185 102.93L186.955 106.177Z" fill="white"/>
</g>
<path opacity="0.5" d="M199.095 136.598C199.095 136.598 211.407 134.87 215.028 132.499C210.644 136.336 204.713 137.151 199.095 136.598Z" fill="#FF2156"/>
<path opacity="0.5" d="M200.464 137.982C200.464 137.982 209.507 138.049 212.357 136.703C208.804 139.044 204.443 138.999 200.464 137.982Z" fill="#FF2156"/>
<path d="M178.48 76.5185C177.605 78.8672 176.64 81.4403 177.291 84.2902C177.942 87.1401 180.837 88.6361 185.31 88.5987C184.831 86.7362 182.804 85.6067 181.196 82.7419C179.587 79.877 181.196 73.3844 181.196 73.3844L180.635 72.8982C179.972 74.5302 179.444 76.2139 179.056 77.9322C178.308 76.8102 178.48 76.5185 178.48 76.5185Z" fill="#FF2156"/>
<path opacity="0.3" d="M178.48 76.5185C177.605 78.8672 176.64 81.4403 177.291 84.2902C177.942 87.1401 180.837 88.6361 185.31 88.5987C184.831 86.7362 182.804 85.6067 181.196 82.7419C179.587 79.877 181.196 73.3844 181.196 73.3844L180.635 72.8982C179.972 74.5302 179.444 76.2139 179.056 77.9322C178.308 76.8102 178.48 76.5185 178.48 76.5185Z" fill="white"/>
<path d="M185.25 76.713C185.159 77.4022 184.917 78.0628 184.54 78.6473C184.164 79.2318 183.663 79.7259 183.073 80.094C181.577 80.8943 180.373 79.0767 180.38 76.9973C180.38 75.1198 181.128 72.4494 182.834 72.5093C184.539 72.5691 185.594 74.8131 185.25 76.713Z" fill="#FFC3BD"/>
<path d="M177.403 65.4332C177.919 68.8141 181.712 78.4259 187.486 82.2482C192.722 85.7339 198.175 86.1528 199.941 82.3754C199.941 82.3754 206.403 84.567 207.944 72.1577C209.268 61.551 201.579 54.0187 193.231 52.7097C185.639 51.5278 170.716 55.006 177.403 65.4332Z" fill="#DBDBDB"/>
<path opacity="0.2" d="M178.069 65.7398C178.069 65.7398 183.926 76.6681 199.297 81.8667C190.321 81.0738 183.096 74.1773 178.069 65.7398Z" fill="black"/>
</svg>
